<?xml version="1.0" encoding="UTF-8"?>
<svg xmlns="http://www.w3.org/2000/svg" xmlns:xlink="http://www.w3.org/1999/xlink" width="375pt" height="374.999991pt" viewBox="0 0 375 374.999991" version="1.2">
<g id="surface1">
<path style=" stroke:none;fill-rule:nonzero;fill:rgb(89.7995%,3.529358%,7.839966%);fill-opacity:1;" d="M 18.894531 142.109375 L 35.765625 142.109375 C 41.109375 142.109375 45.089844 143.539062 47.71875 146.382812 C 50.339844 149.210938 51.65625 153.375 51.65625 158.867188 L 51.65625 193.144531 C 51.65625 198.648438 50.339844 202.820312 47.71875 205.667969 C 45.089844 208.496094 41.109375 209.902344 35.765625 209.902344 L 18.894531 209.902344 Z M 29.5625 151.792969 L 29.5625 200.21875 L 35.578125 200.21875 C 37.242188 200.21875 38.546875 199.746094 39.511719 198.78125 C 40.496094 197.796875 40.988281 196.085938 40.988281 193.636719 L 40.988281 158.375 C 40.988281 155.9375 40.496094 154.234375 39.511719 153.269531 C 38.546875 152.285156 37.242188 151.792969 35.578125 151.792969 Z M 29.5625 151.792969 "/>
<path style=" stroke:none;fill-rule:nonzero;fill:rgb(89.7995%,3.529358%,7.839966%);fill-opacity:1;" d="M 92.90625 209.902344 L 82.160156 209.902344 L 80.308594 197.609375 L 67.21875 197.609375 L 65.402344 209.902344 L 55.601562 209.902344 L 66.460938 142.109375 L 82.046875 142.109375 Z M 68.578125 188.414062 L 78.871094 188.414062 L 73.722656 154.101562 Z M 68.578125 188.414062 "/>
<path style=" stroke:none;fill-rule:nonzero;fill:rgb(89.7995%,3.529358%,7.839966%);fill-opacity:1;" d="M 120.097656 209.902344 C 119.964844 209.449219 119.84375 209.035156 119.71875 208.65625 C 119.585938 208.257812 119.472656 207.765625 119.378906 207.179688 C 119.273438 206.601562 119.207031 205.875 119.191406 204.984375 C 119.160156 204.078125 119.152344 202.941406 119.152344 201.582031 L 119.152344 190.910156 C 119.152344 187.761719 118.59375 185.539062 117.488281 184.253906 C 116.398438 182.949219 114.621094 182.285156 112.152344 182.285156 L 108.484375 182.285156 L 108.484375 209.902344 L 97.816406 209.902344 L 97.816406 142.109375 L 113.894531 142.109375 C 119.464844 142.109375 123.484375 143.414062 125.960938 146.007812 C 128.457031 148.578125 129.707031 152.476562 129.707031 157.695312 L 129.707031 163.03125 C 129.707031 169.992188 127.371094 174.570312 122.707031 176.761719 C 125.433594 177.878906 127.285156 179.675781 128.269531 182.171875 C 129.273438 184.652344 129.78125 187.660156 129.78125 191.214844 L 129.78125 201.65625 C 129.78125 203.347656 129.839844 204.824219 129.972656 206.082031 C 130.09375 207.351562 130.425781 208.617188 130.957031 209.902344 Z M 108.484375 151.792969 L 108.484375 172.601562 L 112.644531 172.601562 C 114.632812 172.601562 116.199219 172.089844 117.335938 171.050781 C 118.472656 170.019531 119.039062 168.15625 119.039062 165.453125 L 119.039062 158.753906 C 119.039062 156.316406 118.59375 154.546875 117.714844 153.457031 C 116.855469 152.351562 115.492188 151.792969 113.628906 151.792969 Z M 108.484375 151.792969 "/>
<path style=" stroke:none;fill-rule:nonzero;fill:rgb(89.7995%,3.529358%,7.839966%);fill-opacity:1;" d="M 150.707031 182.890625 L 147.414062 189.097656 L 147.414062 209.902344 L 136.746094 209.902344 L 136.746094 142.109375 L 147.414062 142.109375 L 147.414062 171.65625 L 161.375 142.109375 L 172.003906 142.109375 L 157.210938 172.335938 L 172.003906 209.902344 L 161.070312 209.902344 Z M 150.707031 182.890625 "/>
<path style=" stroke:none;fill-rule:nonzero;fill:rgb(89.7995%,3.529358%,7.839966%);fill-opacity:1;" d="M 191.847656 142.109375 L 208.722656 142.109375 C 214.0625 142.109375 218.046875 143.539062 220.675781 146.382812 C 223.296875 149.210938 224.609375 153.375 224.609375 158.867188 L 224.609375 193.144531 C 224.609375 198.648438 223.296875 202.820312 220.675781 205.667969 C 218.046875 208.496094 214.0625 209.902344 208.722656 209.902344 L 191.847656 209.902344 Z M 202.515625 151.792969 L 202.515625 200.21875 L 208.53125 200.21875 C 210.195312 200.21875 211.5 199.746094 212.464844 198.78125 C 213.449219 197.796875 213.941406 196.085938 213.941406 193.636719 L 213.941406 158.375 C 213.941406 155.9375 213.449219 154.234375 212.464844 153.269531 C 211.5 152.285156 210.195312 151.792969 208.53125 151.792969 Z M 202.515625 151.792969 "/>
<path style=" stroke:none;fill-rule:nonzero;fill:rgb(89.7995%,3.529358%,7.839966%);fill-opacity:1;" d="M 253.640625 209.902344 C 253.507812 209.449219 253.382812 209.035156 253.261719 208.65625 C 253.128906 208.257812 253.015625 207.765625 252.921875 207.179688 C 252.816406 206.601562 252.75 205.875 252.730469 204.984375 C 252.703125 204.078125 252.695312 202.941406 252.695312 201.582031 L 252.695312 190.910156 C 252.695312 187.761719 252.136719 185.539062 251.03125 184.253906 C 249.941406 182.949219 248.164062 182.285156 245.695312 182.285156 L 242.027344 182.285156 L 242.027344 209.902344 L 231.355469 209.902344 L 231.355469 142.109375 L 247.4375 142.109375 C 253.007812 142.109375 257.027344 143.414062 259.503906 146.007812 C 262 148.578125 263.25 152.476562 263.25 157.695312 L 263.25 163.03125 C 263.25 169.992188 260.914062 174.570312 256.25 176.761719 C 258.972656 177.878906 260.828125 179.675781 261.8125 182.171875 C 262.8125 184.652344 263.324219 187.660156 263.324219 191.214844 L 263.324219 201.65625 C 263.324219 203.347656 263.382812 204.824219 263.515625 206.082031 C 263.636719 207.351562 263.96875 208.617188 264.496094 209.902344 Z M 242.027344 151.792969 L 242.027344 172.601562 L 246.1875 172.601562 C 248.171875 172.601562 249.742188 172.089844 250.878906 171.050781 C 252.011719 170.019531 252.582031 168.15625 252.582031 165.453125 L 252.582031 158.753906 C 252.582031 156.316406 252.136719 154.546875 251.257812 153.457031 C 250.394531 152.351562 249.035156 151.792969 247.171875 151.792969 Z M 242.027344 151.792969 "/>
<path style=" stroke:none;fill-rule:nonzero;fill:rgb(89.7995%,3.529358%,7.839966%);fill-opacity:1;" d="M 270.285156 142.109375 L 280.953125 142.109375 L 280.953125 209.902344 L 270.285156 209.902344 Z M 270.285156 142.109375 "/>
<path style=" stroke:none;fill-rule:nonzero;fill:rgb(89.7995%,3.529358%,7.839966%);fill-opacity:1;" d="M 304.765625 197.417969 L 312.898438 142.109375 L 322.699219 142.109375 L 312.21875 209.902344 L 296.367188 209.902344 L 285.886719 142.109375 L 296.632812 142.109375 Z M 304.765625 197.417969 "/>
<path style=" stroke:none;fill-rule:nonzero;fill:rgb(89.7995%,3.529358%,7.839966%);fill-opacity:1;" d="M 338.285156 170.671875 L 352.925781 170.671875 L 352.925781 180.355469 L 338.285156 180.355469 L 338.285156 200.21875 L 356.667969 200.21875 L 356.667969 209.902344 L 327.617188 209.902344 L 327.617188 142.109375 L 356.667969 142.109375 L 356.667969 151.792969 L 338.285156 151.792969 Z M 338.285156 170.671875 "/>
</g>
</svg>
